<svg id="Layer_2" data-name="Layer 2" xmlns="http://www.w3.org/2000/svg" viewBox="0 0 500 500"><defs><style>.cls-1{fill:#fff;}.cls-2{fill:#4b8ac9;}.cls-3{fill:#217cba;}.cls-4{fill:#2b5aa2;}.cls-5{fill:#154a81;}.cls-6{fill:#010101;}.cls-7{isolation:isolate;}</style></defs><title>qdslogo_square_fixed</title><rect class="cls-1" width="500" height="500"/><path class="cls-2" d="M150.19,216.62,120,92.23a8.64,8.64,0,0,1,7.24-10.62l34-4.59a9.13,9.13,0,0,1,10.24,7.64l17.36,111.83a9.14,9.14,0,0,1-4.49,9.33l-24.46,15A6.64,6.64,0,0,1,150.19,216.62Z"/><path class="cls-3" d="M200.22,188.53,176.88,20a6.28,6.28,0,0,1,7.44-7l48.29,9.12a6.27,6.27,0,0,1,5.06,6L242.08,173a8.89,8.89,0,0,1-5.36,8.44L209,193.5A6.28,6.28,0,0,1,200.22,188.53Z"/><path class="cls-4" d="M255.54,164l-.83-40.3a9.47,9.47,0,0,1,9.75-9.66l27.41-.16a9.46,9.46,0,0,1,9.17,9.75l-.94,32.16a9.48,9.48,0,0,1-7.11,8.9L264.67,172C259.75,173.24,255.64,169.11,255.54,164Z"/><path class="cls-5" d="M314.23,150.29l6.85-69.58a6.28,6.28,0,0,1,8.54-5.24l32.72,12.81a12.43,12.43,0,0,1,7.58,14.34l-9,38.32a14.08,14.08,0,0,1-11.22,10.72l-28.41,5.15A6,6,0,0,1,314.23,150.29Z"/><path class="cls-6" d="M133.78,255.73c24.92-22.44,122-99.22,285.46-101.17a.6.6,0,0,1,.16,1.19c-24.59,6-130.16,35.51-210.56,113a24,24,0,0,1-21.72,6.17l-51.23-11.19A4.62,4.62,0,0,1,133.78,255.73Z"/><g class="cls-7"><g class="cls-7"><path class="cls-2" d="M143.26,333.93c.11,8.92-2.23,18.17-7.25,25.42l9.25,9.14L134.9,378.85l-9.48-9.36c-5.9,3.79-13.37,5.8-22.18,5.8-27.75,0-40-20.18-40.13-40.46S75.82,294,103.24,294,142.92,313.87,143.26,333.93ZM77.6,335.16c.23,12.82,8.7,26.53,25.64,26.53,17.61,0,26.08-14.83,25.53-28.2-.56-12.6-7.14-26.2-25.53-26.2S77.38,322,77.6,335.16Z"/><path class="cls-2" d="M166.88,319v28.76c0,8.36,4.57,14.71,13.27,14.71,8.36,0,14-7,14-15.38V319h13.49v55.06H195.53l-.89-7.47c-5.69,5.58-10.93,8.25-18.62,8.25-13.15,0-22.74-9.92-22.74-27V319Z"/><path class="cls-2" d="M262.3,319h13V374H262.52l-.67-8c-3.12,6.47-11.7,9.59-17.83,9.7-16.28.11-28.31-9.92-28.31-29.2,0-18.95,12.59-28.87,28.64-28.76,7.36,0,14.38,3.46,17.5,8.92Zm-33,27.42c0,10.48,7.25,16.72,16.28,16.72,21.4,0,21.4-33.33,0-33.33C236.55,329.81,229.3,335.94,229.3,346.42Z"/><path class="cls-2" d="M300.3,296V374H286.82V296Z"/><path class="cls-2" d="M328.05,303.5c0,10.59-16.05,10.59-16.05,0S328.05,292.92,328.05,303.5Zm-14.82,15.27V374h13.6V318.77Z"/></g><g class="cls-7"><path class="cls-2" d="M358.25,303.5v15.61h15.16v11.7H358.14v23.75c0,5.23,2.9,7.8,7.13,7.8a15.6,15.6,0,0,0,6.58-1.67l3.79,11.59a30.34,30.34,0,0,1-11.26,2.34c-11.93.44-19.73-6.35-19.73-20.06V330.81H334.4v-11.7h10.25V305Z"/></g><g class="cls-7"><path class="cls-2" d="M440.17,319l-33.55,77.91H391.68l10.25-23.85L380,319H395.8l8.36,23.74,5.24,15.49,5.69-15.16,10-24.07Z"/></g><g class="cls-7"><path class="cls-5" d="M152.78,430.73c.34,19.73-11.7,39.68-39,39.68H83.12v-78h30.65C140.52,392.38,152.45,411.45,152.78,430.73ZM97.72,456.25h16c17.72,0,24.75-12.93,24.41-25.63-.33-12.15-7.47-24.3-24.41-24.3h-16Z"/><path class="cls-5" d="M174.07,415.46l1,6.35c4.24-6.8,9.92-7.8,15.5-7.8s11.14,2.23,14.15,5.24l-6.13,11.81a13.57,13.57,0,0,0-9.81-3.56c-7.13,0-13.71,3.79-13.71,13.93v29h-13.6v-55Z"/><path class="cls-5" d="M224.67,400c0,10.59-16,10.59-16,0S224.67,389.38,224.67,400Zm-14.82,15.27v55.18h13.6V415.23Z"/><path class="cls-5" d="M294.66,415.35l-23.4,55.28H256.54L233,415.35h14.83l7.58,18.16,8.47,23.19,8.36-23,7.58-18.39Z"/><path class="cls-5" d="M310.83,447.78c.89,6.8,6.8,11.71,16.38,11.71,5,0,11.6-1.9,14.72-5.13l8.69,8.58c-5.79,6-15.27,8.92-23.63,8.92-18.95,0-30.21-11.7-30.21-29.32,0-16.72,11.37-28.75,29.21-28.75,18.39,0,29.87,11.37,27.75,34Zm29.87-11.26c-.89-7.13-6.46-10.7-14.27-10.7-7.35,0-13.37,3.57-15.38,10.7Z"/><path class="cls-5" d="M404.68,470.41V441.65c0-8.36-4.57-14.71-13.27-14.71-8.36,0-14,7-14,15.38v28.09H363.88V415.35H376l.89,7.46c5.58-5.46,11.15-8.24,18.06-8.24,12.93,0,23.3,9.69,23.3,27v28.87Z"/></g></g></svg>